# xmcd
#
# Track frame offsets:
#	150
#	13524
#	26032
#	41087
#	52467
#	69720
#	87261
#	101184
#	118659
#	130906
#	150099
#	169125
#	186525
#
# Disc length: 2713 seconds
#
# Revision: 0
# Processed by: cddbd v1.5.1PL0 Copyright (c) Steve Scherf et al.
# Submitted via: EasyCDDAExtractor 8.1.4.1
#
DISCID=b80a970d
DTITLE=Keith Urban - The Ranch
DYEAR=1997
DGENRE=Country
TTITLE0=Walkin The Country  
TTITLE1=Homespun Love
TTITLE2=Just Some Love
TTITLE3=Some Days You Gotta Dance
TTITLE4=My Last Name
TTITLE5=Desiree
TTITLE6=Freedom's Finally Mine
TTITLE7=Hank Don't Fail Me Now
TTITLE8=Tangled Up In Love
TTITLE9=Clutterbilly
TTITLE10=Man Of The House
TTITLE11=Ghost In This Guitar
TTITLE12=Bonus Track
EXTD=
EXTT0=
EXTT1=
EXTT2=
EXTT3=
EXTT4=
EXTT5=
EXTT6=
EXTT7=
EXTT8=
EXTT9=
EXTT10=
EXTT11=
EXTT12=
PLAYORDER=
